<?xml version="1.0" encoding="UTF-8" standalone="no"?>
<svg width="20px" height="20px" viewBox="0 0 20 20" version="1.1" xmlns="http://www.w3.org/2000/svg" xmlns:xlink="http://www.w3.org/1999/xlink">
    <!-- Generator: Sketch 48.1 (47250) - http://www.bohemiancoding.com/sketch -->
    <title>Glyph / Social / Google / Black </title>
    <desc>Created with Sketch.</desc>
    <defs></defs>
    <g id="Symbols" stroke="none" stroke-width="1" fill="none" fill-rule="evenodd">
        <g id="Glyph-/-Social-/-Google-/-Black-" fill="#000000">
            <g id="Group" transform="translate(0.000000, 4.000000)">
                <path d="M0.665122675,6.29427066 C0.716233786,3.23312983 3.52754692,0.552179579 6.58552672,0.654305239 C8.05057722,0.586356285 9.42795096,1.2245911 10.5501732,2.12107239 C10.0713853,2.66567517 9.57542571,3.19066173 9.0453247,3.68147159 C7.69643581,2.74798239 5.77764793,2.48144453 4.42875904,3.55952748 C2.49865803,4.89565469 2.41098126,8.05042755 4.26714288,9.48868042 C6.0723954,11.1285556 9.48471863,10.3141793 9.98350651,7.80350591 C8.85259742,7.78651867 7.71906207,7.80350591 6.588355,7.76670023 C6.58552672,7.09145749 6.58269843,6.41621476 6.58552672,5.74097203 C8.47582975,5.73530962 10.3661328,5.73247841 12.2592641,5.74663444 C12.3725974,7.3353457 12.1629005,9.02618262 11.187951,10.3398624 C9.7113853,12.4193835 6.74694086,13.0264751 4.4344156,12.1356562 C2.1134055,11.2504997 0.469567119,8.79645045 0.665122675,6.29427066" id="Fill-186"></path>
                <path d="M16.3842136,4.28571429 L18.0704762,4.28571429 C18.0733045,4.85033774 18.0761328,5.41759017 18.0817893,5.98221362 C18.6458297,5.98787603 19.2124964,5.98787603 19.7765368,5.99353844 L19.7765368,7.68154416 C19.2124964,7.68720657 18.648658,7.69003778 18.0817893,7.69570019 C18.0761328,8.26315485 18.0733045,8.8277783 18.0704762,9.39219952 L16.3813853,9.39219952 C16.3757287,8.8277783 16.3757287,8.26315485 16.3700722,7.6985314 C15.8060317,7.69286898 15.2391631,7.68720657 14.6753247,7.68154416 L14.6753247,5.99353844 C15.2391631,5.98787603 15.8032035,5.98504482 16.3700722,5.98221362 C16.3729004,5.41475896 16.378557,4.85033774 16.3842136,4.28571429" id="Fill-187"></path>
            </g>
        </g>
    </g>
</svg>