<?xml version="1.0" encoding="UTF-8" standalone="no"?>
<svg width="20px" height="20px" viewBox="0 0 20 20" version="1.1" xmlns="http://www.w3.org/2000/svg" xmlns:xlink="http://www.w3.org/1999/xlink">
    <!-- Generator: Sketch 48.1 (47250) - http://www.bohemiancoding.com/sketch -->
    <title>Glyph / Social / LinkedIn / Black</title>
    <desc>Created with Sketch.</desc>
    <defs></defs>
    <g id="Symbols" stroke="none" stroke-width="1" fill="none" fill-rule="evenodd">
        <g id="Glyph-/-Social-/-LinkedIn-/-Black">
            <g id="Group-26" transform="translate(3.000000, 3.000000)">
                <rect id="Rectangle-26-Copy-3" x="0" y="0" width="14" height="14"></rect>
                <path d="M0.35312794,4.48917915 L3.08184384,4.48917915 L3.08184384,13.9991036 L0.35312794,13.9991036 L0.35312794,4.48917915 Z M1.64793039,3.29965425 L1.62817498,3.29965425 C0.640404516,3.29965425 -3.55271368e-15,2.57267256 -3.55271368e-15,1.65206813 C-3.55271368e-15,0.712639262 0.659336783,0 1.66686265,0 C2.67356538,0 3.2925682,0.710846459 3.31232361,1.64937892 C3.31232361,2.56998335 2.67356538,3.29965425 1.64793039,3.29965425 L1.64793039,3.29965425 Z M14,14 L10.905809,14 L10.905809,9.07785888 C10.905809,7.7897298 10.4218015,6.91125624 9.35747883,6.91125624 C8.54339135,6.91125624 8.09066322,7.50377769 7.87993885,8.07657831 C7.80091722,8.28095787 7.81326435,8.56690998 7.81326435,8.85375848 L7.81326435,14 L4.74788335,14 C4.74788335,14 4.78739417,5.28159816 4.74788335,4.48917915 L7.81326435,4.48917915 L7.81326435,5.9816878 C7.9943556,5.32910744 8.97389464,4.39774619 10.5370414,4.39774619 C12.4763641,4.39774619 14,5.76655142 14,8.71123063 L14,14 L14,14 Z" id="Shape" fill="#bbbbbb"></path>
            </g>
        </g>
    </g>
</svg>
