<?xml version="1.0" encoding="UTF-8" standalone="no"?>
<svg width="20px" height="20px" viewBox="0 0 20 20" version="1.1" xmlns="http://www.w3.org/2000/svg" xmlns:xlink="http://www.w3.org/1999/xlink">
    <!-- Generator: Sketch 48.1 (47250) - http://www.bohemiancoding.com/sketch -->
    <title>Glyph / Social / Twitter / Black</title>
    <desc>Created with Sketch.</desc>
    <defs></defs>
    <g id="Symbols" stroke="none" stroke-width="1"  fill="none" fill-rule="evenodd">
        <g id="Glyph-/-Social-/-Twitter-/-Black" fill="#bbbbbb">
            <g id="Group-24" transform="translate(2.000000, 3.000000)">
                <path d="M14.1151611,2.16817647 C14.7932148,1.740286 15.3134942,1.06180227 15.5576686,0.253564722 C14.922815,0.650750088 14.2212831,0.937991375 13.4727945,1.09349786 C12.8755063,0.419966571 12.0218348,0 11.0770676,0 C9.26454188,0 7.79573869,1.55011246 7.79573869,3.46175275 C7.79573869,3.73314624 7.82297353,3.99760632 7.87932148,4.25018056 C5.15208077,4.10556943 2.73381464,2.72879222 1.11381112,0.632921318 C0.831132242,1.14599369 0.669601456,1.740286 0.669601456,2.37419781 C0.669601456,3.57466829 1.24904619,4.63448959 2.12995246,5.25651555 C1.59182955,5.23868678 1.08563714,5.08119931 0.642366614,4.82367264 L0.642366614,4.86626359 C0.642366614,6.5441489 1.77308212,7.94370731 3.27663321,8.26066321 C3.00052826,8.34188316 2.71127546,8.38249314 2.41075307,8.38249314 C2.19944826,8.38249314 1.99283911,8.36169291 1.79374303,8.32108293 C2.21071785,9.69587916 3.42313788,10.6982522 4.86001057,10.7249954 C3.73586899,11.6540723 2.32059635,12.2067642 0.783236485,12.2067642 C0.518401127,12.2067642 0.256383166,12.1919069 0,12.1592208 C1.45283794,13.1407936 3.1780243,13.7142857 5.03187181,13.7142857 C11.0704936,13.7142857 14.3706052,8.43895091 14.3706052,3.86389055 C14.3706052,3.7133365 14.3687269,3.56377293 14.362153,3.41619034 C15.0035804,2.92788015 15.5614251,2.31774004 16,1.62340851 C15.4111639,1.89876395 14.7781886,2.08497555 14.1151611,2.16817647 Z" id="Shape"></path>
            </g>
        </g>
    </g>
</svg>
